<mxfile host="app.diagrams.net" modified="2024-01-25T15:12:48.857Z" agent="Mozilla/5.0 (Macintosh; Intel Mac OS X 10_15_7) AppleWebKit/605.1.15 (KHTML, like Gecko) Version/17.1.1 Safari/605.1.15" etag="1thhKWp87DqduH2qc2E8" version="23.0.1" type="github">
  <diagram name="Page-1" id="bU8HwiHO2z0er_gi6axd">
    <mxGraphModel dx="1546" dy="990" grid="0" gridSize="10" guides="1" tooltips="1" connect="1" arrows="1" fold="1" page="0" pageScale="1" pageWidth="827" pageHeight="1169" math="0" shadow="0">
      <root>
        <mxCell id="0" />
        <mxCell id="1" parent="0" />
        <mxCell id="7BAnZkNB2l5M3Dy1pDHz-3" value="" style="edgeStyle=none;curved=1;rounded=0;orthogonalLoop=1;jettySize=auto;html=1;fontSize=12;startSize=8;endSize=8;" edge="1" parent="1" source="7BAnZkNB2l5M3Dy1pDHz-1" target="7BAnZkNB2l5M3Dy1pDHz-2">
          <mxGeometry relative="1" as="geometry" />
        </mxCell>
        <mxCell id="7BAnZkNB2l5M3Dy1pDHz-1" value="" style="rounded=0;whiteSpace=wrap;html=1;fontSize=16;direction=south;" vertex="1" parent="1">
          <mxGeometry x="-176.5" y="-145.5" width="90.5" height="132" as="geometry" />
        </mxCell>
        <mxCell id="7BAnZkNB2l5M3Dy1pDHz-5" value="" style="edgeStyle=none;curved=1;rounded=0;orthogonalLoop=1;jettySize=auto;html=1;fontSize=12;startSize=8;endSize=8;" edge="1" parent="1" source="7BAnZkNB2l5M3Dy1pDHz-2" target="7BAnZkNB2l5M3Dy1pDHz-4">
          <mxGeometry relative="1" as="geometry" />
        </mxCell>
        <mxCell id="7BAnZkNB2l5M3Dy1pDHz-2" value="" style="ellipse;whiteSpace=wrap;html=1;fontSize=16;rounded=0;" vertex="1" parent="1">
          <mxGeometry x="39.25" y="-119.5" width="80" height="80" as="geometry" />
        </mxCell>
        <mxCell id="7BAnZkNB2l5M3Dy1pDHz-4" value="" style="shape=document;whiteSpace=wrap;html=1;boundedLbl=1;fontSize=16;rounded=0;" vertex="1" parent="1">
          <mxGeometry x="19.25" y="80.5" width="120" height="80" as="geometry" />
        </mxCell>
      </root>
    </mxGraphModel>
  </diagram>
</mxfile>
